<?xml version="1.0" encoding="utf-8"?>
<!-- Generator: Adobe Illustrator 27.7.0, SVG Export Plug-In . SVG Version: 6.00 Build 0)  -->
<svg version="1.1" id="Ebene_1" xmlns="http://www.w3.org/2000/svg" xmlns:xlink="http://www.w3.org/1999/xlink" x="0px" y="0px"
	 viewBox="0 0 433.64 493.43" style="enable-background:new 0 0 433.64 493.43;" xml:space="preserve">
<style type="text/css">
	.st0{fill:#0BA5C6;}
	.st1{fill:#6F5BA4;}
</style>
<g>
	<g>
		<path class="st0" d="M235.49,245.1c26.02,27.03,43.32,46.82,51.33,58.9c-4.33,15.65-8.84,31.87-13.61,48.73
			c-3.69,13.23-7.7,25.38-12.15,36.45c-0.89,2.35-1.84,4.71-2.86,6.93c-1.59,3.82-3.31,7.51-5.03,11.07
			c-1.08,2.23-2.16,4.39-3.31,6.42c-10.24,19.34-22.01,34.16-35.3,44.4c-30.6,23.6-69.4,35.43-116.41,35.43
			c-32.63,0-57.12-9.41-73.53-28.18C8.21,446.49,0,425.24,0,401.64c0-14.19,4.64-27.67,13.99-40.33
			c9.29-12.66,21.18-19.02,35.62-19.02c21.88,0,32.82,9.8,32.82,29.45c0,10.69-4.33,21.18-13.04,31.36
			c-8.21,10.24-13.17,16.92-14.95,20.16c-1.72,3.24-2.61,7.95-2.61,14.19c0,12.66,4.52,23.03,13.49,30.98
			c8.91,7.95,19.59,11.96,32.06,11.96c12.72,0,25.51-3.37,38.42-10.11c12.98-6.68,24.24-16.41,33.78-29.07
			c7.51-9.92,14.44-23.16,20.86-39.76c0.76-1.91,1.53-3.94,2.23-5.98c1.02-2.8,2.04-5.73,3.05-8.78c0.51-1.65,1.08-3.37,1.72-5.22
			c0.64-1.97,1.27-4.13,1.97-6.36c7.63-24.36,17.87-60.94,30.85-109.73L235.49,245.1z"/>
		<path class="st0" d="M282.88,211.89c8.4,8.71,15.9,16.79,22.45,24.17c-5.03,18.83-10.5,38.87-16.28,59.99
			c-9.54-13.04-26.78-32.44-51.72-58.27l15.14-58.9C257.94,185.49,268.06,196.5,282.88,211.89z"/>
		<path class="st0" d="M433.64,9.73c0,4.45-6.81,7.57-20.48,9.35c-23.15,2.74-39.88,11.2-50.19,25.38
			c-5.34,7.32-10.94,19.53-16.73,36.51c-0.7,2.04-1.4,4.2-2.04,6.36c-1.65,5.09-3.31,10.5-4.9,16.35c-0.76,2.54-1.53,5.22-2.23,7.89
			c-2.48,9.16-4.96,19.08-7.51,29.9c-6.23,25.57-13.68,54.64-22.26,87.21c-5.92-6.55-12.53-13.61-19.85-21.18
			c-16.98-17.68-27.86-29.58-32.31-35.37c-0.25-0.32-0.51-0.7-0.7-1.02l12.02-46.82c3.56-14.19,6.42-26.53,8.65-37.09
			c0.45-2.35,0.89-4.58,1.34-6.74c0.76-4.07,1.4-7.82,1.97-11.26c0.38-2.29,0.64-4.45,0.89-6.49c0.64-4.83,0.95-8.78,0.95-11.96
			c0-11.2-3.24-19.4-9.73-24.62c-6.42-5.22-19.15-9.29-38.04-12.28c-6.49-1.02-9.73-3.37-9.73-7.12c0-4.45,2.86-6.74,8.59-6.74
			c4.77,0,11.07,0.51,19.08,1.53c13.93,1.46,49.36,2.23,106.36,2.23l65.33-1.08C429.82,2.67,433.64,5.03,433.64,9.73z"/>
	</g>
	<path class="st1" d="M185.62,371.81c-17.56-16.73-26.33-37.15-26.33-61.26c0-8.21,1.27-15.97,3.75-23.35
		c1.53-4.33,2.29-7.89,2.29-10.56c0-2.67-1.46-4.01-4.33-4.01c-5.85,0-18.26,27.99-37.34,83.9c-6.55,19.08-12.21,32.51-17.05,40.39
		l-0.76,2.29c0,1.85,1.14,2.74,3.5,2.74c1.72,0,6.81-4.2,15.33-12.53c7.7-7.89,17.56-14.88,29.64-21.12
		c9.92,10.11,20.8,18.19,32.63,24.36c0.89-2.61,1.84-5.28,2.74-8.02c0.76-2.23,1.53-4.64,2.35-7.19
		C189.82,375.69,187.72,373.78,185.62,371.81z M334.22,272.38c-5.22-8.14-13.1-18.32-23.85-30.6c-1.59-1.84-3.24-3.75-5.03-5.72
		c-6.55-7.38-14.06-15.46-22.45-24.17c-14.82-15.39-24.94-26.4-30.41-33.01c-0.95-1.15-1.72-2.1-2.35-2.93
		c-0.89-1.15-1.78-2.35-2.54-3.56c-3.56-5.15-6.62-11.07-9.29-17.62c-3.24-8.14-4.9-16.6-4.9-25.51c0-14.69,5.47-26.72,16.35-36
		c5.98-5.15,12.59-8.84,19.85-11.07c0.89-4.45,1.65-8.52,2.29-12.28c-20.1,2.67-37.47,10.31-52.03,22.96
		c-18.57,16.09-27.86,37.15-27.86,63.29c0,11.51,2.42,22.71,7.25,33.52c4.83,10.62,15.78,24.94,32.95,42.75
		c0.19,0.25,0.45,0.51,0.7,0.76c1.53,1.53,2.99,3.05,4.45,4.58c24.94,25.83,42.17,45.23,51.72,58.27c1.46,1.91,2.67,3.69,3.75,5.34
		c0.32,0.51,0.64,1.02,0.95,1.53c8.14,13.04,12.21,26.78,12.21,41.28c0,14.06-5.34,26.4-16.09,36.89
		c-6.68,6.62-14.76,11.13-24.24,13.61c-1.65,4.2-3.43,8.21-5.28,12.09c24.74-2.04,44.97-11.07,60.56-27.16
		c17.81-18.45,26.72-39.69,26.72-63.8C347.64,300.95,343.18,286.44,334.22,272.38z M388.09,87.59c-2.35,0-4.71,2.42-7.06,7.25
		c-5.15,10.75-9.61,16.09-13.29,16.09c-1.34,0-4.01-2.61-8.02-7.76c-3.24-4.13-6.62-7.89-10.24-11.19
		c-1.84,5.73-3.63,11.9-5.47,18.51c10.31,16.35,15.46,35.81,15.46,58.46c0,5.66-0.45,11.58-1.27,17.56
		c-0.32,1.72-0.51,3.18-0.51,4.52c0,3.88,1.46,5.79,4.26,5.79c2.67,0,4.71-1.97,6.04-6.04c1.34-4.01,4.83-17.62,10.56-40.9
		c5.34-24.3,9.41-41.03,12.28-50.25c0.83-2.8,1.27-5.34,1.27-7.51C392.1,89.12,390.77,87.59,388.09,87.59z"/>
</g>
</svg>
